<mxfile host="app.diagrams.net" agent="Mozilla/5.0 (Windows NT 10.0; Win64; x64) AppleWebKit/537.36 (KHTML, like Gecko) Chrome/134.0.0.0 Safari/537.36" version="26.1.1">
  <diagram name="Page-1" id="ymzay8qUs7n8RvK7FeqE">
    <mxGraphModel dx="3452" dy="1325" grid="1" gridSize="10" guides="1" tooltips="1" connect="1" arrows="1" fold="1" page="1" pageScale="1" pageWidth="827" pageHeight="1169" math="0" shadow="0">
      <root>
        <mxCell id="0" />
        <mxCell id="1" parent="0" />
        <mxCell id="z8XtD5NhEqIu6248cUx9-148" style="edgeStyle=orthogonalEdgeStyle;rounded=0;orthogonalLoop=1;jettySize=auto;html=1;exitX=1;exitY=0.5;exitDx=0;exitDy=0;entryX=0;entryY=0.5;entryDx=0;entryDy=0;" edge="1" parent="1" source="z8XtD5NhEqIu6248cUx9-114" target="z8XtD5NhEqIu6248cUx9-147">
          <mxGeometry relative="1" as="geometry" />
        </mxCell>
        <mxCell id="z8XtD5NhEqIu6248cUx9-151" value="Host" style="edgeLabel;html=1;align=center;verticalAlign=middle;resizable=0;points=[];" vertex="1" connectable="0" parent="z8XtD5NhEqIu6248cUx9-148">
          <mxGeometry x="-0.1397" y="-3" relative="1" as="geometry">
            <mxPoint x="-1" as="offset" />
          </mxGeometry>
        </mxCell>
        <mxCell id="z8XtD5NhEqIu6248cUx9-171" style="edgeStyle=orthogonalEdgeStyle;rounded=0;orthogonalLoop=1;jettySize=auto;html=1;exitX=0.5;exitY=1;exitDx=0;exitDy=0;entryX=0.5;entryY=0;entryDx=0;entryDy=0;" edge="1" parent="1" source="z8XtD5NhEqIu6248cUx9-114" target="z8XtD5NhEqIu6248cUx9-170">
          <mxGeometry relative="1" as="geometry" />
        </mxCell>
        <mxCell id="z8XtD5NhEqIu6248cUx9-176" style="edgeStyle=orthogonalEdgeStyle;rounded=0;orthogonalLoop=1;jettySize=auto;html=1;exitX=1;exitY=1;exitDx=0;exitDy=0;entryX=0.5;entryY=0;entryDx=0;entryDy=0;" edge="1" parent="1" source="z8XtD5NhEqIu6248cUx9-114" target="z8XtD5NhEqIu6248cUx9-175">
          <mxGeometry relative="1" as="geometry" />
        </mxCell>
        <mxCell id="z8XtD5NhEqIu6248cUx9-114" value="Ward" style="rounded=1;whiteSpace=wrap;html=1;" vertex="1" parent="1">
          <mxGeometry x="-30" y="1330" width="120" height="60" as="geometry" />
        </mxCell>
        <mxCell id="z8XtD5NhEqIu6248cUx9-149" style="edgeStyle=orthogonalEdgeStyle;rounded=0;orthogonalLoop=1;jettySize=auto;html=1;exitX=0;exitY=0.5;exitDx=0;exitDy=0;entryX=1;entryY=0.5;entryDx=0;entryDy=0;" edge="1" parent="1" source="z8XtD5NhEqIu6248cUx9-115" target="z8XtD5NhEqIu6248cUx9-147">
          <mxGeometry relative="1" as="geometry" />
        </mxCell>
        <mxCell id="z8XtD5NhEqIu6248cUx9-150" value="Hosted By" style="edgeLabel;html=1;align=center;verticalAlign=middle;resizable=0;points=[];" vertex="1" connectable="0" parent="z8XtD5NhEqIu6248cUx9-149">
          <mxGeometry x="0.1724" y="-1" relative="1" as="geometry">
            <mxPoint as="offset" />
          </mxGeometry>
        </mxCell>
        <mxCell id="z8XtD5NhEqIu6248cUx9-163" style="edgeStyle=orthogonalEdgeStyle;rounded=0;orthogonalLoop=1;jettySize=auto;html=1;exitX=0.5;exitY=0;exitDx=0;exitDy=0;" edge="1" parent="1" source="z8XtD5NhEqIu6248cUx9-115" target="z8XtD5NhEqIu6248cUx9-161">
          <mxGeometry relative="1" as="geometry" />
        </mxCell>
        <mxCell id="z8XtD5NhEqIu6248cUx9-168" style="edgeStyle=orthogonalEdgeStyle;rounded=0;orthogonalLoop=1;jettySize=auto;html=1;exitX=0;exitY=0;exitDx=0;exitDy=0;entryX=1;entryY=0;entryDx=0;entryDy=0;" edge="1" parent="1" source="z8XtD5NhEqIu6248cUx9-115" target="z8XtD5NhEqIu6248cUx9-166">
          <mxGeometry relative="1" as="geometry">
            <Array as="points">
              <mxPoint x="827" y="1320" />
              <mxPoint x="794" y="1320" />
              <mxPoint x="794" y="1260" />
            </Array>
          </mxGeometry>
        </mxCell>
        <mxCell id="z8XtD5NhEqIu6248cUx9-115" value="Patient" style="rounded=1;whiteSpace=wrap;html=1;" vertex="1" parent="1">
          <mxGeometry x="827" y="1340" width="120" height="60" as="geometry" />
        </mxCell>
        <mxCell id="z8XtD5NhEqIu6248cUx9-184" style="edgeStyle=orthogonalEdgeStyle;rounded=0;orthogonalLoop=1;jettySize=auto;html=1;exitX=0;exitY=0.5;exitDx=0;exitDy=0;entryX=0.659;entryY=1.041;entryDx=0;entryDy=0;entryPerimeter=0;" edge="1" parent="1" source="z8XtD5NhEqIu6248cUx9-116" target="z8XtD5NhEqIu6248cUx9-187">
          <mxGeometry relative="1" as="geometry">
            <mxPoint x="630" y="1560" as="targetPoint" />
          </mxGeometry>
        </mxCell>
        <mxCell id="z8XtD5NhEqIu6248cUx9-116" value="Drug" style="rounded=1;whiteSpace=wrap;html=1;" vertex="1" parent="1">
          <mxGeometry x="827" y="1630" width="120" height="60" as="geometry" />
        </mxCell>
        <mxCell id="z8XtD5NhEqIu6248cUx9-172" style="edgeStyle=orthogonalEdgeStyle;rounded=0;orthogonalLoop=1;jettySize=auto;html=1;exitX=0.5;exitY=0;exitDx=0;exitDy=0;entryX=0.5;entryY=1;entryDx=0;entryDy=0;" edge="1" parent="1" source="z8XtD5NhEqIu6248cUx9-117" target="z8XtD5NhEqIu6248cUx9-170">
          <mxGeometry relative="1" as="geometry" />
        </mxCell>
        <mxCell id="z8XtD5NhEqIu6248cUx9-178" style="edgeStyle=orthogonalEdgeStyle;rounded=0;orthogonalLoop=1;jettySize=auto;html=1;exitX=1;exitY=0;exitDx=0;exitDy=0;entryX=0.5;entryY=1;entryDx=0;entryDy=0;" edge="1" parent="1" source="z8XtD5NhEqIu6248cUx9-117" target="z8XtD5NhEqIu6248cUx9-175">
          <mxGeometry relative="1" as="geometry" />
        </mxCell>
        <mxCell id="z8XtD5NhEqIu6248cUx9-185" style="edgeStyle=orthogonalEdgeStyle;rounded=0;orthogonalLoop=1;jettySize=auto;html=1;exitX=1;exitY=0.5;exitDx=0;exitDy=0;entryX=0.163;entryY=1.056;entryDx=0;entryDy=0;entryPerimeter=0;" edge="1" parent="1" source="z8XtD5NhEqIu6248cUx9-117" target="z8XtD5NhEqIu6248cUx9-187">
          <mxGeometry relative="1" as="geometry">
            <mxPoint x="570" y="1540" as="targetPoint" />
          </mxGeometry>
        </mxCell>
        <mxCell id="z8XtD5NhEqIu6248cUx9-117" value="Nurse" style="rounded=1;whiteSpace=wrap;html=1;" vertex="1" parent="1">
          <mxGeometry x="-45" y="1630" width="120" height="60" as="geometry" />
        </mxCell>
        <mxCell id="z8XtD5NhEqIu6248cUx9-169" style="edgeStyle=orthogonalEdgeStyle;rounded=0;orthogonalLoop=1;jettySize=auto;html=1;exitX=1;exitY=1;exitDx=0;exitDy=0;entryX=0;entryY=0;entryDx=0;entryDy=0;" edge="1" parent="1" source="z8XtD5NhEqIu6248cUx9-118" target="z8XtD5NhEqIu6248cUx9-166">
          <mxGeometry relative="1" as="geometry" />
        </mxCell>
        <mxCell id="z8XtD5NhEqIu6248cUx9-118" value="Consultant" style="rounded=1;whiteSpace=wrap;html=1;" vertex="1" parent="1">
          <mxGeometry x="414" y="1200" width="120" height="60" as="geometry" />
        </mxCell>
        <mxCell id="z8XtD5NhEqIu6248cUx9-119" value="&lt;u&gt;ID&lt;/u&gt;" style="ellipse;whiteSpace=wrap;html=1;" vertex="1" parent="1">
          <mxGeometry x="-150" y="1330" width="50" height="30" as="geometry" />
        </mxCell>
        <mxCell id="z8XtD5NhEqIu6248cUx9-120" value="Name" style="ellipse;whiteSpace=wrap;html=1;" vertex="1" parent="1">
          <mxGeometry x="-150" y="1370" width="50" height="30" as="geometry" />
        </mxCell>
        <mxCell id="z8XtD5NhEqIu6248cUx9-121" value="" style="endArrow=none;html=1;rounded=0;entryX=1;entryY=0.5;entryDx=0;entryDy=0;exitX=0;exitY=0.25;exitDx=0;exitDy=0;" edge="1" parent="1" source="z8XtD5NhEqIu6248cUx9-114" target="z8XtD5NhEqIu6248cUx9-119">
          <mxGeometry width="50" height="50" relative="1" as="geometry">
            <mxPoint x="-105" y="1420" as="sourcePoint" />
            <mxPoint x="-55" y="1370" as="targetPoint" />
          </mxGeometry>
        </mxCell>
        <mxCell id="z8XtD5NhEqIu6248cUx9-122" value="" style="endArrow=none;html=1;rounded=0;entryX=1;entryY=0.5;entryDx=0;entryDy=0;exitX=0;exitY=0.75;exitDx=0;exitDy=0;" edge="1" parent="1" source="z8XtD5NhEqIu6248cUx9-114" target="z8XtD5NhEqIu6248cUx9-120">
          <mxGeometry width="50" height="50" relative="1" as="geometry">
            <mxPoint x="170" y="1480" as="sourcePoint" />
            <mxPoint x="220" y="1430" as="targetPoint" />
          </mxGeometry>
        </mxCell>
        <mxCell id="z8XtD5NhEqIu6248cUx9-123" value="&lt;u&gt;ID&lt;/u&gt;" style="ellipse;whiteSpace=wrap;html=1;" vertex="1" parent="1">
          <mxGeometry x="-150" y="1620" width="50" height="30" as="geometry" />
        </mxCell>
        <mxCell id="z8XtD5NhEqIu6248cUx9-124" value="Name" style="ellipse;whiteSpace=wrap;html=1;" vertex="1" parent="1">
          <mxGeometry x="-160" y="1680" width="50" height="30" as="geometry" />
        </mxCell>
        <mxCell id="z8XtD5NhEqIu6248cUx9-125" value="Address" style="ellipse;whiteSpace=wrap;html=1;" vertex="1" parent="1">
          <mxGeometry x="-115" y="1724" width="50" height="30" as="geometry" />
        </mxCell>
        <mxCell id="z8XtD5NhEqIu6248cUx9-126" value="" style="endArrow=none;html=1;rounded=0;entryX=1;entryY=0;entryDx=0;entryDy=0;exitX=0.198;exitY=1.026;exitDx=0;exitDy=0;exitPerimeter=0;" edge="1" parent="1" source="z8XtD5NhEqIu6248cUx9-117" target="z8XtD5NhEqIu6248cUx9-125">
          <mxGeometry width="50" height="50" relative="1" as="geometry">
            <mxPoint x="170" y="1550" as="sourcePoint" />
            <mxPoint x="220" y="1500" as="targetPoint" />
          </mxGeometry>
        </mxCell>
        <mxCell id="z8XtD5NhEqIu6248cUx9-127" value="" style="endArrow=none;html=1;rounded=0;entryX=1;entryY=0.5;entryDx=0;entryDy=0;exitX=0;exitY=0.75;exitDx=0;exitDy=0;" edge="1" parent="1" source="z8XtD5NhEqIu6248cUx9-117" target="z8XtD5NhEqIu6248cUx9-124">
          <mxGeometry width="50" height="50" relative="1" as="geometry">
            <mxPoint x="170" y="1550" as="sourcePoint" />
            <mxPoint x="220" y="1500" as="targetPoint" />
          </mxGeometry>
        </mxCell>
        <mxCell id="z8XtD5NhEqIu6248cUx9-128" value="" style="endArrow=none;html=1;rounded=0;entryX=1;entryY=0.5;entryDx=0;entryDy=0;exitX=0;exitY=0.25;exitDx=0;exitDy=0;" edge="1" parent="1" source="z8XtD5NhEqIu6248cUx9-117" target="z8XtD5NhEqIu6248cUx9-123">
          <mxGeometry width="50" height="50" relative="1" as="geometry">
            <mxPoint x="170" y="1550" as="sourcePoint" />
            <mxPoint x="220" y="1500" as="targetPoint" />
          </mxGeometry>
        </mxCell>
        <mxCell id="z8XtD5NhEqIu6248cUx9-129" value="Name" style="ellipse;whiteSpace=wrap;html=1;" vertex="1" parent="1">
          <mxGeometry x="390" y="1139" width="50" height="30" as="geometry" />
        </mxCell>
        <mxCell id="z8XtD5NhEqIu6248cUx9-130" value="&lt;u&gt;ID&lt;/u&gt;" style="ellipse;whiteSpace=wrap;html=1;" vertex="1" parent="1">
          <mxGeometry x="484" y="1120" width="50" height="30" as="geometry" />
        </mxCell>
        <mxCell id="z8XtD5NhEqIu6248cUx9-131" value="" style="endArrow=none;html=1;rounded=0;entryX=0.5;entryY=1;entryDx=0;entryDy=0;exitX=0.75;exitY=0;exitDx=0;exitDy=0;" edge="1" parent="1" source="z8XtD5NhEqIu6248cUx9-118" target="z8XtD5NhEqIu6248cUx9-130">
          <mxGeometry width="50" height="50" relative="1" as="geometry">
            <mxPoint x="360" y="1340" as="sourcePoint" />
            <mxPoint x="410" y="1290" as="targetPoint" />
          </mxGeometry>
        </mxCell>
        <mxCell id="z8XtD5NhEqIu6248cUx9-132" value="" style="endArrow=none;html=1;rounded=0;entryX=0.25;entryY=0;entryDx=0;entryDy=0;exitX=0.5;exitY=1;exitDx=0;exitDy=0;" edge="1" parent="1" source="z8XtD5NhEqIu6248cUx9-129" target="z8XtD5NhEqIu6248cUx9-118">
          <mxGeometry width="50" height="50" relative="1" as="geometry">
            <mxPoint x="250" y="1420" as="sourcePoint" />
            <mxPoint x="300" y="1370" as="targetPoint" />
          </mxGeometry>
        </mxCell>
        <mxCell id="z8XtD5NhEqIu6248cUx9-133" value="&lt;u&gt;ID&lt;/u&gt;" style="ellipse;whiteSpace=wrap;html=1;" vertex="1" parent="1">
          <mxGeometry x="990" y="1330" width="50" height="30" as="geometry" />
        </mxCell>
        <mxCell id="z8XtD5NhEqIu6248cUx9-134" value="Name" style="ellipse;whiteSpace=wrap;html=1;" vertex="1" parent="1">
          <mxGeometry x="990" y="1380" width="50" height="30" as="geometry" />
        </mxCell>
        <mxCell id="z8XtD5NhEqIu6248cUx9-135" value="&lt;u&gt;CodeN&lt;/u&gt;" style="ellipse;whiteSpace=wrap;html=1;" vertex="1" parent="1">
          <mxGeometry x="1007" y="1660" width="50" height="30" as="geometry" />
        </mxCell>
        <mxCell id="z8XtD5NhEqIu6248cUx9-136" value="RDosage" style="ellipse;whiteSpace=wrap;html=1;" vertex="1" parent="1">
          <mxGeometry x="1007" y="1600" width="64" height="30" as="geometry" />
        </mxCell>
        <mxCell id="z8XtD5NhEqIu6248cUx9-137" value="DofB" style="ellipse;whiteSpace=wrap;html=1;" vertex="1" parent="1">
          <mxGeometry x="957" y="1430" width="50" height="30" as="geometry" />
        </mxCell>
        <mxCell id="z8XtD5NhEqIu6248cUx9-138" value="Name" style="ellipse;whiteSpace=wrap;html=1;" vertex="1" parent="1">
          <mxGeometry x="983" y="1710" width="64" height="30" as="geometry" />
        </mxCell>
        <mxCell id="z8XtD5NhEqIu6248cUx9-139" value="" style="endArrow=none;html=1;rounded=0;entryX=0;entryY=0.5;entryDx=0;entryDy=0;exitX=1;exitY=1;exitDx=0;exitDy=0;" edge="1" parent="1" source="z8XtD5NhEqIu6248cUx9-116" target="z8XtD5NhEqIu6248cUx9-138">
          <mxGeometry width="50" height="50" relative="1" as="geometry">
            <mxPoint x="620" y="1520" as="sourcePoint" />
            <mxPoint x="670" y="1470" as="targetPoint" />
          </mxGeometry>
        </mxCell>
        <mxCell id="z8XtD5NhEqIu6248cUx9-140" value="" style="endArrow=none;html=1;rounded=0;entryX=0;entryY=0.5;entryDx=0;entryDy=0;exitX=1;exitY=0.25;exitDx=0;exitDy=0;" edge="1" parent="1" source="z8XtD5NhEqIu6248cUx9-116" target="z8XtD5NhEqIu6248cUx9-136">
          <mxGeometry width="50" height="50" relative="1" as="geometry">
            <mxPoint x="620" y="1520" as="sourcePoint" />
            <mxPoint x="670" y="1470" as="targetPoint" />
          </mxGeometry>
        </mxCell>
        <mxCell id="z8XtD5NhEqIu6248cUx9-141" value="" style="endArrow=none;html=1;rounded=0;entryX=0;entryY=0.5;entryDx=0;entryDy=0;exitX=0.986;exitY=0.65;exitDx=0;exitDy=0;exitPerimeter=0;" edge="1" parent="1" source="z8XtD5NhEqIu6248cUx9-116" target="z8XtD5NhEqIu6248cUx9-135">
          <mxGeometry width="50" height="50" relative="1" as="geometry">
            <mxPoint x="620" y="1520" as="sourcePoint" />
            <mxPoint x="670" y="1470" as="targetPoint" />
          </mxGeometry>
        </mxCell>
        <mxCell id="z8XtD5NhEqIu6248cUx9-142" value="" style="endArrow=none;html=1;rounded=0;entryX=0.5;entryY=0;entryDx=0;entryDy=0;exitX=1;exitY=1;exitDx=0;exitDy=0;" edge="1" parent="1" source="z8XtD5NhEqIu6248cUx9-115" target="z8XtD5NhEqIu6248cUx9-137">
          <mxGeometry width="50" height="50" relative="1" as="geometry">
            <mxPoint x="620" y="1520" as="sourcePoint" />
            <mxPoint x="670" y="1470" as="targetPoint" />
          </mxGeometry>
        </mxCell>
        <mxCell id="z8XtD5NhEqIu6248cUx9-143" value="" style="endArrow=none;html=1;rounded=0;entryX=0;entryY=0.5;entryDx=0;entryDy=0;exitX=0.992;exitY=0.623;exitDx=0;exitDy=0;exitPerimeter=0;" edge="1" parent="1" source="z8XtD5NhEqIu6248cUx9-115" target="z8XtD5NhEqIu6248cUx9-134">
          <mxGeometry width="50" height="50" relative="1" as="geometry">
            <mxPoint x="620" y="1520" as="sourcePoint" />
            <mxPoint x="670" y="1470" as="targetPoint" />
          </mxGeometry>
        </mxCell>
        <mxCell id="z8XtD5NhEqIu6248cUx9-144" value="" style="endArrow=none;html=1;rounded=0;entryX=0;entryY=0.5;entryDx=0;entryDy=0;exitX=1;exitY=0.25;exitDx=0;exitDy=0;" edge="1" parent="1" source="z8XtD5NhEqIu6248cUx9-115" target="z8XtD5NhEqIu6248cUx9-133">
          <mxGeometry width="50" height="50" relative="1" as="geometry">
            <mxPoint x="620" y="1520" as="sourcePoint" />
            <mxPoint x="670" y="1470" as="targetPoint" />
          </mxGeometry>
        </mxCell>
        <mxCell id="z8XtD5NhEqIu6248cUx9-147" value="Hosting" style="rhombus;whiteSpace=wrap;html=1;" vertex="1" parent="1">
          <mxGeometry x="435" y="1340" width="80" height="80" as="geometry" />
        </mxCell>
        <mxCell id="z8XtD5NhEqIu6248cUx9-152" value="1" style="text;html=1;align=center;verticalAlign=middle;whiteSpace=wrap;rounded=0;" vertex="1" parent="1">
          <mxGeometry x="390" y="1350" width="60" height="30" as="geometry" />
        </mxCell>
        <mxCell id="z8XtD5NhEqIu6248cUx9-153" value="M" style="text;html=1;align=center;verticalAlign=middle;whiteSpace=wrap;rounded=0;" vertex="1" parent="1">
          <mxGeometry x="510" y="1345" width="60" height="30" as="geometry" />
        </mxCell>
        <mxCell id="z8XtD5NhEqIu6248cUx9-159" style="edgeStyle=orthogonalEdgeStyle;rounded=0;orthogonalLoop=1;jettySize=auto;html=1;exitX=0.5;exitY=1;exitDx=0;exitDy=0;entryX=0.25;entryY=0;entryDx=0;entryDy=0;" edge="1" parent="1" source="z8XtD5NhEqIu6248cUx9-157">
          <mxGeometry relative="1" as="geometry">
            <mxPoint x="720" y="1200.0000000000005" as="targetPoint" />
          </mxGeometry>
        </mxCell>
        <mxCell id="z8XtD5NhEqIu6248cUx9-160" style="edgeStyle=orthogonalEdgeStyle;rounded=0;orthogonalLoop=1;jettySize=auto;html=1;exitX=0.5;exitY=1;exitDx=0;exitDy=0;entryX=0.856;entryY=-0.026;entryDx=0;entryDy=0;entryPerimeter=0;" edge="1" parent="1" source="z8XtD5NhEqIu6248cUx9-158">
          <mxGeometry relative="1" as="geometry">
            <mxPoint x="792.7199999999998" y="1198.44" as="targetPoint" />
          </mxGeometry>
        </mxCell>
        <mxCell id="z8XtD5NhEqIu6248cUx9-161" value="Assigne" style="rhombus;whiteSpace=wrap;html=1;" vertex="1" parent="1">
          <mxGeometry x="790" y="1160" width="80" height="80" as="geometry" />
        </mxCell>
        <mxCell id="z8XtD5NhEqIu6248cUx9-162" style="edgeStyle=orthogonalEdgeStyle;rounded=0;orthogonalLoop=1;jettySize=auto;html=1;exitX=1;exitY=0.5;exitDx=0;exitDy=0;entryX=0.172;entryY=0.325;entryDx=0;entryDy=0;entryPerimeter=0;" edge="1" parent="1" source="z8XtD5NhEqIu6248cUx9-118" target="z8XtD5NhEqIu6248cUx9-161">
          <mxGeometry relative="1" as="geometry" />
        </mxCell>
        <mxCell id="z8XtD5NhEqIu6248cUx9-164" value="M" style="text;html=1;align=center;verticalAlign=middle;whiteSpace=wrap;rounded=0;" vertex="1" parent="1">
          <mxGeometry x="827" y="1230" width="60" height="30" as="geometry" />
        </mxCell>
        <mxCell id="z8XtD5NhEqIu6248cUx9-165" value="1" style="text;html=1;align=center;verticalAlign=middle;whiteSpace=wrap;rounded=0;" vertex="1" parent="1">
          <mxGeometry x="760" y="1160" width="60" height="30" as="geometry" />
        </mxCell>
        <mxCell id="z8XtD5NhEqIu6248cUx9-166" value="Examine" style="rhombus;whiteSpace=wrap;html=1;" vertex="1" parent="1">
          <mxGeometry x="680" y="1240" width="80" height="80" as="geometry" />
        </mxCell>
        <mxCell id="z8XtD5NhEqIu6248cUx9-170" value="&lt;span style=&quot;font-size: 12pt; font-family: Cambria, serif;&quot;&gt;supervision&amp;nbsp;&lt;/span&gt;" style="rhombus;whiteSpace=wrap;html=1;" vertex="1" parent="1">
          <mxGeometry x="-20" y="1480" width="110" height="80" as="geometry" />
        </mxCell>
        <mxCell id="z8XtD5NhEqIu6248cUx9-173" value="1" style="text;html=1;align=center;verticalAlign=middle;whiteSpace=wrap;rounded=0;" vertex="1" parent="1">
          <mxGeometry x="21" y="1460" width="60" height="30" as="geometry" />
        </mxCell>
        <mxCell id="z8XtD5NhEqIu6248cUx9-174" value="1" style="text;html=1;align=center;verticalAlign=middle;whiteSpace=wrap;rounded=0;" vertex="1" parent="1">
          <mxGeometry x="18" y="1550" width="60" height="30" as="geometry" />
        </mxCell>
        <mxCell id="z8XtD5NhEqIu6248cUx9-175" value="Serve" style="rhombus;whiteSpace=wrap;html=1;" vertex="1" parent="1">
          <mxGeometry x="190" y="1480" width="80" height="80" as="geometry" />
        </mxCell>
        <mxCell id="z8XtD5NhEqIu6248cUx9-179" value="1" style="text;html=1;align=center;verticalAlign=middle;whiteSpace=wrap;rounded=0;" vertex="1" parent="1">
          <mxGeometry x="220" y="1460" width="60" height="30" as="geometry" />
        </mxCell>
        <mxCell id="z8XtD5NhEqIu6248cUx9-180" value="M" style="text;html=1;align=center;verticalAlign=middle;whiteSpace=wrap;rounded=0;" vertex="1" parent="1">
          <mxGeometry x="220" y="1550" width="60" height="30" as="geometry" />
        </mxCell>
        <mxCell id="z8XtD5NhEqIu6248cUx9-183" style="edgeStyle=orthogonalEdgeStyle;rounded=0;orthogonalLoop=1;jettySize=auto;html=1;exitX=0.5;exitY=1;exitDx=0;exitDy=0;entryX=0.681;entryY=-0.026;entryDx=0;entryDy=0;entryPerimeter=0;" edge="1" parent="1" source="z8XtD5NhEqIu6248cUx9-115" target="z8XtD5NhEqIu6248cUx9-187">
          <mxGeometry relative="1" as="geometry">
            <mxPoint x="632.6399999999999" y="1529.1200000000003" as="targetPoint" />
          </mxGeometry>
        </mxCell>
        <mxCell id="z8XtD5NhEqIu6248cUx9-186" value="Time" style="ellipse;whiteSpace=wrap;html=1;" vertex="1" parent="1">
          <mxGeometry x="490" y="1480" width="64" height="30" as="geometry" />
        </mxCell>
        <mxCell id="z8XtD5NhEqIu6248cUx9-187" value="N_P_D" style="rounded=1;whiteSpace=wrap;html=1;" vertex="1" parent="1">
          <mxGeometry x="560" y="1540" width="110" height="40" as="geometry" />
        </mxCell>
        <mxCell id="z8XtD5NhEqIu6248cUx9-189" value="" style="endArrow=none;html=1;rounded=0;exitX=0;exitY=0;exitDx=0;exitDy=0;entryX=0.701;entryY=1.044;entryDx=0;entryDy=0;entryPerimeter=0;" edge="1" parent="1" source="z8XtD5NhEqIu6248cUx9-187" target="z8XtD5NhEqIu6248cUx9-186">
          <mxGeometry width="50" height="50" relative="1" as="geometry">
            <mxPoint x="460" y="1560" as="sourcePoint" />
            <mxPoint x="510" y="1510" as="targetPoint" />
          </mxGeometry>
        </mxCell>
        <mxCell id="z8XtD5NhEqIu6248cUx9-190" value="Patient&lt;div&gt;&lt;u&gt;ID&lt;/u&gt;, Name, DofB, Ward_ID&lt;/div&gt;" style="rounded=0;whiteSpace=wrap;html=1;" vertex="1" parent="1">
          <mxGeometry x="280" y="1960" width="450" height="60" as="geometry" />
        </mxCell>
        <mxCell id="z8XtD5NhEqIu6248cUx9-191" value="Ward&lt;div&gt;&lt;u&gt;ID&lt;/u&gt;, Name, Supervisor_ID&lt;/div&gt;&lt;div&gt;&lt;span style=&quot;white-space: pre;&quot;&gt;&#x9;&lt;/span&gt;&lt;span style=&quot;white-space: pre;&quot;&gt;&#x9;&lt;/span&gt;-------------------&lt;/div&gt;" style="rounded=0;whiteSpace=wrap;html=1;" vertex="1" parent="1">
          <mxGeometry x="284" y="1780" width="450" height="60" as="geometry" />
        </mxCell>
        <mxCell id="z8XtD5NhEqIu6248cUx9-192" value="Drug&lt;div&gt;&lt;u&gt;CodeN&lt;/u&gt;, RDosage, Name&lt;/div&gt;" style="rounded=0;whiteSpace=wrap;html=1;" vertex="1" parent="1">
          <mxGeometry x="280" y="2130" width="450" height="60" as="geometry" />
        </mxCell>
        <mxCell id="z8XtD5NhEqIu6248cUx9-193" value="N_P_D&lt;div&gt;PID, NID, CodeN, Dosage, Time&amp;nbsp;&lt;/div&gt;&lt;div&gt;------&amp;nbsp; ------&amp;nbsp; ----------&amp;nbsp;&lt;span style=&quot;white-space: pre;&quot;&gt;&#x9;&lt;/span&gt;&lt;span style=&quot;white-space: pre;&quot;&gt;&#x9;&lt;/span&gt;&lt;span style=&quot;white-space: pre;&quot;&gt;&#x9;&lt;/span&gt;&lt;span style=&quot;white-space: pre;&quot;&gt;&#x9;&lt;/span&gt;&lt;/div&gt;&lt;div&gt;(Patient take Druge form Nurse at certain time)&lt;/div&gt;" style="rounded=0;whiteSpace=wrap;html=1;" vertex="1" parent="1">
          <mxGeometry x="280" y="2220" width="450" height="60" as="geometry" />
        </mxCell>
        <mxCell id="z8XtD5NhEqIu6248cUx9-195" value="Nurse&lt;div&gt;&lt;u&gt;ID&lt;/u&gt;, Name, Address, Ward_ID&lt;/div&gt;&lt;div&gt;&lt;span style=&quot;white-space: pre;&quot;&gt;&#x9;&lt;/span&gt;&lt;span style=&quot;white-space: pre;&quot;&gt;&#x9;&lt;/span&gt;&lt;span style=&quot;white-space: pre;&quot;&gt;&#x9;&lt;/span&gt;&lt;span style=&quot;white-space: pre;&quot;&gt;&#x9;&lt;/span&gt;------------&lt;/div&gt;" style="rounded=0;whiteSpace=wrap;html=1;" vertex="1" parent="1">
          <mxGeometry x="279" y="2040" width="450" height="60" as="geometry" />
        </mxCell>
        <mxCell id="z8XtD5NhEqIu6248cUx9-196" value="M" style="text;html=1;align=center;verticalAlign=middle;whiteSpace=wrap;rounded=0;" vertex="1" parent="1">
          <mxGeometry x="580" y="1505" width="60" height="30" as="geometry" />
        </mxCell>
        <mxCell id="z8XtD5NhEqIu6248cUx9-197" value="1" style="text;html=1;align=center;verticalAlign=middle;whiteSpace=wrap;rounded=0;" vertex="1" parent="1">
          <mxGeometry x="835" y="1400" width="60" height="30" as="geometry" />
        </mxCell>
        <mxCell id="z8XtD5NhEqIu6248cUx9-198" value="1" style="text;html=1;align=center;verticalAlign=middle;whiteSpace=wrap;rounded=0;" vertex="1" parent="1">
          <mxGeometry x="765" y="1630" width="60" height="30" as="geometry" />
        </mxCell>
        <mxCell id="z8XtD5NhEqIu6248cUx9-199" value="1" style="text;html=1;align=center;verticalAlign=middle;whiteSpace=wrap;rounded=0;" vertex="1" parent="1">
          <mxGeometry x="55" y="1606" width="60" height="30" as="geometry" />
        </mxCell>
        <mxCell id="z8XtD5NhEqIu6248cUx9-200" value="M" style="text;html=1;align=center;verticalAlign=middle;whiteSpace=wrap;rounded=0;" vertex="1" parent="1">
          <mxGeometry x="630" y="1576" width="60" height="30" as="geometry" />
        </mxCell>
        <mxCell id="z8XtD5NhEqIu6248cUx9-201" value="M" style="text;html=1;align=center;verticalAlign=middle;whiteSpace=wrap;rounded=0;" vertex="1" parent="1">
          <mxGeometry x="520" y="1576" width="60" height="30" as="geometry" />
        </mxCell>
        <mxCell id="z8XtD5NhEqIu6248cUx9-205" value="Consultant&lt;div&gt;&lt;u&gt;ID&lt;/u&gt;, Name&lt;/div&gt;" style="rounded=0;whiteSpace=wrap;html=1;" vertex="1" parent="1">
          <mxGeometry x="279" y="1870" width="450" height="60" as="geometry" />
        </mxCell>
        <mxCell id="z8XtD5NhEqIu6248cUx9-206" value="1" style="text;html=1;align=center;verticalAlign=middle;whiteSpace=wrap;rounded=0;" vertex="1" parent="1">
          <mxGeometry x="669" y="1230" width="60" height="30" as="geometry" />
        </mxCell>
        <mxCell id="z8XtD5NhEqIu6248cUx9-207" value="M" style="text;html=1;align=center;verticalAlign=middle;whiteSpace=wrap;rounded=0;" vertex="1" parent="1">
          <mxGeometry x="740" y="1260" width="60" height="30" as="geometry" />
        </mxCell>
      </root>
    </mxGraphModel>
  </diagram>
</mxfile>
